<?xml version="1.0" standalone="no"?>
<!DOCTYPE svg PUBLIC "-//W3C//DTD SVG 20010904//EN"
 "http://www.w3.org/TR/2001/REC-SVG-20010904/DTD/svg10.dtd">
<svg version="1.0" xmlns="http://www.w3.org/2000/svg"
 width="250.000000pt" height="250.000000pt" viewBox="0 0 250.000000 250.000000"
 preserveAspectRatio="xMidYMid meet">
<metadata>
Created by potrace 1.16, written by Peter Selinger 2001-2019
</metadata>
<g transform="translate(0.000000,250.000000) scale(0.100000,-0.100000)"
fill="#000000" stroke="none">
<path d="M1860 2167 c-31 -16 -70 -73 -70 -104 0 -13 11 -35 25 -49 l25 -25
-15 -110 c-10 -81 -21 -123 -41 -159 -46 -84 -45 -84 -176 -67 -62 8 -131 22
-153 32 l-40 18 34 10 c26 8 36 8 39 -1 2 -7 12 -12 22 -12 37 0 34 154 -4
228 -37 72 -151 132 -251 132 -30 0 -57 5 -60 10 -3 6 -22 10 -41 10 -30 0
-35 -4 -40 -30 -6 -27 -9 -28 -38 -22 -40 9 -252 9 -292 0 -26 -6 -33 -3 -44
16 -13 26 -56 53 -66 43 -4 -3 4 -11 18 -17 13 -6 29 -20 36 -30 10 -16 9 -21
-8 -30 -16 -8 -26 -7 -42 5 -13 8 -32 15 -43 15 -15 -1 -11 -4 13 -15 37 -16
38 -19 14 -43 -13 -13 -29 -17 -55 -14 -22 2 -37 0 -37 -7 0 -6 7 -8 15 -5 8
4 21 4 29 1 11 -4 3 -27 -33 -99 -75 -150 -89 -263 -51 -412 33 -129 73 -197
187 -318 57 -60 103 -113 103 -118 0 -18 -146 -49 -232 -50 -88 0 -186 36
-232 85 -30 31 -39 35 -83 35 -82 0 -125 -51 -93 -110 10 -19 59 -40 94 -40
12 0 39 9 60 19 l37 20 67 -27 c86 -33 207 -34 327 -3 75 20 81 20 92 5 15
-21 36 -79 58 -159 14 -50 26 -69 76 -118 56 -54 58 -59 45 -80 -26 -40 -56
-146 -56 -197 0 -121 73 -161 187 -104 60 29 167 138 203 206 23 44 26 46 78
53 120 15 258 78 348 158 46 42 53 44 124 50 254 19 457 196 343 298 -42 36
-90 49 -190 49 l-83 0 0 68 c0 151 -57 291 -159 393 l-67 67 28 33 c41 49 65
123 79 241 11 98 13 106 39 121 29 18 60 72 60 106 0 28 -34 61 -62 61 -13 0
-34 -6 -48 -13z m-797 -158 c20 -5 37 -13 37 -17 0 -4 -11 -72 -24 -152 -13
-80 -22 -147 -20 -149 2 -2 12 16 23 40 57 131 78 172 83 164 3 -6 -17 -59
-44 -118 -28 -60 -47 -111 -44 -114 3 -3 54 2 114 11 60 9 116 14 124 11 9 -4
19 -2 23 4 10 18 40 13 105 -18 40 -19 85 -31 133 -36 123 -11 169 -29 237
-92 68 -62 129 -174 149 -271 16 -75 14 -208 -4 -277 -53 -209 -219 -368 -441
-425 -193 -50 -416 -2 -520 112 -41 45 -50 63 -79 163 -29 103 -74 174 -183
288 -77 82 -110 126 -136 180 -64 135 -82 272 -51 390 22 84 85 208 104 205
11 -2 15 4 13 18 -1 12 4 27 13 34 13 10 15 9 15 -9 0 -11 5 -21 10 -21 6 0
10 14 10 30 0 21 5 30 16 30 11 0 14 -6 9 -20 -10 -32 9 -23 22 9 8 23 18 30
44 34 71 8 226 6 262 -4z m264 -4 c113 -34 167 -106 161 -215 -3 -53 -4 -55
-33 -58 -30 -3 -30 -3 -27 43 8 96 -53 183 -143 206 -44 11 -52 18 -38 32 9
10 24 9 80 -8z m900 -1092 c6 -17 -81 -79 -145 -104 -32 -12 -90 -24 -131 -27
l-73 -5 16 25 c14 21 26 26 74 30 62 5 170 48 198 80 19 20 55 21 61 1z m-887
-388 c0 -18 -45 -88 -84 -132 -51 -56 -140 -118 -156 -108 -18 11 -11 43 11
50 30 10 142 118 164 159 14 25 26 36 42 36 13 0 23 -2 23 -5z"/>
<path d="M645 1826 c-9 -14 -15 -37 -13 -52 3 -27 6 -28 128 -51 69 -13 158
-29 198 -37 39 -7 72 -12 72 -10 0 4 -323 160 -350 169 -13 4 -24 -1 -35 -19z"/>
<path d="M589 1708 c-27 -52 -35 -142 -20 -205 7 -26 28 -72 47 -101 52 -80
154 -136 154 -86 0 22 31 64 46 64 8 0 17 8 21 18 3 9 19 31 34 47 129 142
179 199 179 204 0 6 -196 44 -280 55 -14 1 -36 7 -50 11 -14 5 -34 8 -46 6
-11 -1 -27 5 -34 13 -19 24 -28 20 -51 -26z m71 -27 c-37 -70 21 -232 101
-280 28 -17 28 -18 11 -34 -26 -24 -35 -22 -79 21 -51 49 -76 103 -81 175 -5
63 19 137 45 137 10 0 11 -5 3 -19z"/>
<path d="M1430 1577 c-81 -23 -144 -61 -208 -124 -81 -80 -114 -150 -120 -254
-6 -100 14 -162 75 -229 181 -201 539 -128 670 138 34 68 38 83 38 156 0 67
-5 91 -26 136 -32 67 -87 122 -157 157 -63 31 -199 41 -272 20z m185 -12 c33
-9 61 -17 63 -19 5 -5 20 -120 17 -124 -2 -2 -26 8 -54 22 -28 14 -52 26 -55
26 -3 0 -8 -21 -11 -47 -11 -87 -12 -87 -85 -42 l-65 39 -3 -90 c-1 -50 -6
-90 -10 -90 -4 0 -38 21 -77 45 l-70 45 -3 -95 c-1 -52 -5 -95 -8 -95 -3 0
-34 17 -70 38 -63 36 -64 38 -59 71 24 134 167 272 326 315 70 19 93 19 164 1z
m253 -310 c2 -2 -4 -31 -12 -65 -43 -168 -214 -310 -382 -318 -76 -4 -139 10
-147 32 -9 22 -20 106 -14 106 3 0 26 -9 52 -20 26 -11 51 -20 56 -20 5 0 9
29 9 65 0 36 4 65 10 65 5 0 39 -16 74 -36 l66 -36 -7 97 -6 96 74 -40 c41
-23 78 -41 83 -41 5 0 5 43 1 96 l-7 95 74 -37 c40 -20 74 -38 76 -39z"/>
</g>
</svg>
