<?xml version="1.0" standalone="no"?>
<!DOCTYPE svg PUBLIC "-//W3C//DTD SVG 20010904//EN"
 "http://www.w3.org/TR/2001/REC-SVG-20010904/DTD/svg10.dtd">
<svg version="1.0" xmlns="http://www.w3.org/2000/svg"
 width="866.000000pt" height="1226.000000pt" viewBox="0 0 866.000000 1226.000000"
 preserveAspectRatio="xMidYMid meet">

<g transform="translate(0.000000,1226.000000) scale(0.100000,-0.100000)"
fill="#000000" stroke="none">
<path d="M4375 11973 c-193 -17 -421 -61 -610 -118 -60 -18 -175 -50 -255 -70
-487 -125 -814 -313 -1020 -587 -53 -70 -150 -247 -150 -274 0 -5 -17 -18 -37
-29 -67 -36 -216 -193 -251 -265 -88 -179 -107 -491 -57 -916 l15 -131 -49
-74 c-27 -41 -62 -110 -77 -154 -25 -70 -28 -94 -28 -200 1 -180 58 -394 145
-541 99 -168 321 -299 504 -297 l70 1 78 -222 c43 -121 89 -249 102 -283 13
-35 22 -63 19 -63 -3 0 -19 10 -36 21 -40 29 -140 59 -195 59 -57 0 -153 -25
-220 -57 -49 -23 -75 -47 -199 -190 l-30 -36 -175 -1 c-200 -2 -239 -12 -314
-78 -52 -46 -99 -136 -140 -270 -27 -87 -28 -88 -60 -88 -56 0 -180 -27 -230
-51 -101 -48 -158 -138 -178 -284 -9 -66 -15 -86 -29 -91 -33 -10 -117 -83
-149 -130 -153 -222 -40 -614 272 -948 58 -62 84 -101 126 -189 158 -327 392
-550 680 -648 89 -30 243 -59 319 -59 l41 0 14 -97 c21 -149 18 -647 -5 -833
-34 -277 -91 -568 -162 -825 -19 -71 -38 -140 -41 -152 -8 -33 4 -69 30 -94
l22 -21 1790 7 c985 4 1950 8 2145 10 195 1 541 3 768 4 l414 1 30 31 31 30
-7 122 c-7 149 -37 413 -76 682 -66 455 -112 1269 -160 2835 -6 184 -13 351
-16 371 -8 57 -36 75 -159 102 -261 59 -522 188 -845 420 -101 72 -115 86
-123 120 -9 36 -7 39 50 101 465 497 744 1298 744 2141 1 451 -79 831 -246
1174 -106 217 -206 361 -370 530 -325 336 -722 532 -1208 596 -108 14 -387 18
-502 8z m632 -177 c489 -104 887 -362 1158 -751 59 -85 129 -205 167 -288 l18
-37 -38 23 c-131 83 -277 88 -368 14 -50 -41 -69 -88 -54 -133 l12 -34 56 6
c31 3 63 7 70 10 7 2 45 -1 85 -6 131 -18 268 -106 343 -219 28 -43 56 -165
78 -341 54 -433 12 -914 -120 -1372 -50 -176 -97 -296 -189 -483 -217 -444
-505 -754 -870 -936 -159 -79 -202 -88 -409 -89 -306 0 -540 72 -801 248 -296
199 -538 440 -677 674 -22 38 -42 67 -44 65 -11 -10 42 -173 85 -262 129 -271
344 -501 644 -689 97 -61 208 -107 327 -137 89 -22 273 -39 345 -33 l50 5
-102 -49 c-131 -64 -273 -148 -347 -205 l-58 -46 -47 38 c-73 60 -104 76 -347
170 -506 196 -706 300 -860 448 -59 56 -64 64 -124 218 -74 191 -209 565 -276
763 -55 161 -42 152 -151 111 -62 -24 -63 -24 -128 -7 -212 56 -329 187 -400
448 -51 188 -43 358 22 470 58 99 189 206 289 236 126 38 291 -9 350 -100 35
-53 45 -97 53 -229 5 -70 11 -130 13 -133 6 -6 137 45 207 80 142 72 170 203
92 433 -59 176 -58 203 34 628 35 164 46 285 35 419 -9 102 -8 112 10 131 10
11 39 63 64 115 53 110 140 217 416 505 95 99 183 196 196 216 23 34 30 37
157 67 114 27 254 51 377 66 19 2 148 3 285 1 224 -3 263 -6 372 -29z m-1412
-146 c-10 -11 -95 -61 -189 -111 -246 -131 -354 -205 -471 -323 -55 -56 -111
-120 -125 -144 -29 -49 -29 -49 -174 -57 l-108 -6 18 31 c11 17 47 67 81 110
168 212 468 384 853 485 69 19 127 34 129 34 2 1 -4 -8 -14 -19z m-659 -785
c23 -15 61 -82 52 -91 -2 -1 -39 -10 -83 -19 -221 -45 -367 -117 -495 -245
-138 -137 -196 -279 -206 -500 -3 -75 0 -144 9 -198 l14 -83 -41 -24 c-22 -13
-43 -22 -46 -20 -14 9 -35 296 -34 460 2 195 27 345 72 430 36 67 145 173 217
212 62 32 126 52 280 84 106 22 223 19 261 -6z m-311 -3199 c53 -22 120 -91
186 -189 97 -145 105 -166 124 -322 10 -77 18 -186 19 -242 1 -99 0 -102 -30
-140 -39 -49 -120 -98 -209 -126 -140 -44 -342 -21 -424 49 -67 58 -83 133
-102 502 l-11 224 34 36 c20 20 54 63 77 94 23 31 54 64 68 74 76 49 200 68
268 40z m-568 -270 c1 -1 6 -98 13 -216 21 -418 56 -530 187 -607 53 -31 162
-63 214 -63 l37 0 7 -57 c11 -92 38 -140 120 -215 85 -78 119 -139 135 -238 5
-36 10 -72 10 -81 0 -8 -28 -35 -62 -59 -35 -24 -84 -64 -110 -88 l-46 -43
-69 19 c-37 11 -93 25 -123 32 -85 17 -189 74 -292 159 -239 199 -406 427
-439 601 -7 40 -8 38 -4 -20 7 -104 56 -228 147 -367 110 -169 276 -346 381
-407 37 -21 67 -41 67 -43 0 -13 -64 -95 -83 -107 -12 -8 -63 -16 -114 -19
-160 -10 -290 20 -391 90 -87 60 -223 242 -337 455 -31 56 -53 92 -49 78 12
-43 93 -221 141 -310 131 -242 231 -338 416 -396 31 -10 57 -21 57 -26 0 -31
-153 -37 -276 -12 -141 29 -247 96 -394 251 -125 131 -223 287 -276 438 -22
63 -30 220 -15 268 16 49 81 120 130 141 l40 18 76 -41 c42 -22 79 -41 81 -41
3 0 -20 36 -50 81 l-56 81 10 85 c12 94 37 154 76 179 38 25 130 44 217 44 75
0 81 -2 138 -40 32 -23 59 -38 59 -34 0 3 -16 34 -35 68 l-34 62 35 114 c60
190 102 252 182 265 20 4 44 8 52 10 13 3 222 -5 227 -9z m1173 -295 c112 -71
403 -201 720 -321 129 -49 244 -103 254 -118 3 -5 -14 -18 -37 -28 -78 -35
-183 -111 -256 -185 -80 -80 -177 -220 -212 -305 -13 -30 -27 -54 -32 -54 -5
0 -31 18 -57 40 l-47 40 -6 167 c-6 177 -22 276 -58 352 -14 30 -63 87 -138
161 -65 63 -122 122 -129 131 -22 29 -82 170 -70 163 7 -4 38 -24 68 -43z
m2286 -25 c-12 -63 -57 -160 -202 -431 -79 -149 -156 -299 -171 -333 -14 -34
-30 -61 -34 -60 -3 2 -34 40 -68 84 -69 93 -155 175 -244 236 -64 43 -179 97
-209 98 -37 0 -15 21 80 77 119 70 335 167 582 261 102 39 201 77 220 86 49
22 53 20 46 -18z m279 -279 c96 -282 103 -356 42 -433 -36 -46 -68 -21 -91 71
-29 112 -49 582 -25 558 6 -6 39 -94 74 -196z m-2584 -8 c70 -58 139 -129 156
-162 28 -56 43 -180 50 -422 7 -264 -1 -345 -42 -424 -32 -65 -101 -138 -206
-221 -49 -39 -136 -110 -192 -157 -132 -110 -188 -143 -248 -143 -50 0 -77 18
-106 73 -21 40 -23 165 -4 222 30 87 131 214 340 428 53 53 92 97 88 97 -4 0
-55 -32 -113 -71 -129 -86 -129 -89 8 172 35 68 47 173 28 262 -6 32 -13 57
-16 55 -2 -2 -8 -38 -14 -79 -13 -93 -43 -186 -75 -229 l-24 -33 -11 28 c-20
52 -72 113 -136 158 -46 34 -70 60 -89 98 -15 28 -25 52 -23 54 2 1 39 10 84
19 97 19 191 56 261 103 97 64 137 131 148 250 l7 72 42 -57 c24 -31 62 -73
87 -93z m1393 -289 c70 -30 60 -80 -16 -80 -21 0 -65 -9 -97 -20 -79 -26 -101
-19 -101 34 l0 41 78 22 c42 11 80 21 84 22 3 1 27 -8 52 -19z m-294 -60 c0
-5 -4 -10 -9 -10 -6 0 -13 5 -16 10 -3 6 1 10 9 10 9 0 16 -4 16 -10z m1368
-490 c12 -18 22 -43 22 -55 0 -12 -25 -50 -56 -86 -179 -205 -331 -531 -405
-870 -63 -288 -89 -675 -70 -1032 7 -128 14 -245 17 -262 l4 -30 -10 30 c-5
17 -19 91 -30 165 -88 608 -31 1355 137 1810 36 97 38 100 68 100 57 0 135 30
176 67 46 41 73 88 90 157 13 53 24 54 57 6z m-1004 -132 c3 -29 30 -672 61
-1428 30 -756 57 -1405 60 -1442 l5 -68 -46 0 c-45 0 -46 1 -31 18 64 70 -21
186 -103 142 -23 -12 -23 -12 -16 46 21 172 26 223 32 337 7 121 8 126 30 131
25 7 54 52 54 85 0 24 -46 81 -65 81 -16 0 -21 27 -30 150 -6 80 -39 305 -51
341 -3 12 1 15 18 12 34 -6 85 30 93 66 15 69 -56 127 -118 96 -17 -8 -31 -15
-32 -15 -1 0 -9 35 -18 78 -11 51 -29 284 -52 695 l-36 619 48 45 c44 41 53
45 107 49 32 2 61 6 64 9 14 14 21 1 26 -47z m294 -28 c41 -9 52 -16 48 -29
-24 -76 -73 -367 -96 -572 -69 -600 -34 -1358 95 -2092 19 -108 35 -202 35
-207 0 -6 -37 -10 -90 -10 l-90 0 0 28 c0 15 -27 675 -60 1467 -33 792 -60
1450 -60 1462 l0 22 83 -28 c45 -15 106 -34 135 -41z m-608 -107 c0 -10 11
-205 25 -433 14 -228 25 -433 24 -455 l-1 -40 -21 50 c-68 160 -223 453 -322
606 l-42 65 88 54 c49 30 121 80 161 111 81 63 88 67 88 42z m-1928 -69 l46
-15 -9 -37 c-13 -58 -10 -194 6 -248 8 -27 11 -52 7 -55 -26 -24 -283 -59
-437 -59 -122 0 -197 15 -285 57 l-55 27 70 6 c120 11 186 41 224 104 20 31
25 33 93 40 104 9 151 36 217 124 30 40 59 72 66 72 6 0 32 -7 57 -16z m1152
-244 c21 -7 55 -9 76 -6 46 7 52 0 146 -154 228 -376 421 -895 493 -1325 19
-110 43 -346 37 -352 -2 -2 -15 60 -29 136 -109 568 -398 1150 -715 1442 -51
46 -158 129 -200 154 -1 1 16 41 38 88 l41 87 37 -29 c20 -16 54 -34 76 -41z"/>
<path d="M4346 10955 c-181 -74 -364 -283 -395 -451 -6 -28 -7 -62 -4 -75 7
-28 41 -69 57 -69 6 1 22 23 35 51 140 286 364 414 617 353 30 -8 50 49 34 92
-43 112 -202 158 -344 99z"/>
<path d="M4585 10339 c-33 -5 -88 -22 -122 -39 -126 -62 -287 -246 -327 -373
-26 -83 -19 -322 13 -419 58 -181 195 -291 337 -273 139 17 236 135 260 315
l6 49 -55 -21 c-64 -23 -110 -19 -151 13 -32 25 -35 75 -6 112 24 30 133 87
166 87 28 0 25 17 -22 116 -24 51 -50 86 -90 123 -30 28 -62 51 -70 51 -30 0
-12 19 39 39 76 30 132 40 219 41 l77 0 11 39 c16 60 -9 106 -72 130 -42 16
-146 21 -213 10z"/>
<path d="M6205 10236 c-99 -32 -148 -60 -185 -103 -43 -52 -106 -185 -126
-266 -52 -211 99 -486 267 -487 130 -1 229 111 229 258 0 38 -2 43 -17 37 -10
-5 -39 -13 -65 -18 -38 -9 -50 -8 -72 6 -55 37 -17 119 75 162 l47 21 -17 40
c-22 49 -64 99 -113 134 -35 26 -36 28 -20 43 30 27 109 57 169 65 l58 7 3 47
c3 39 -1 49 -20 62 -33 23 -129 20 -213 -8z"/>
<path d="M5431 10071 c-21 -14 -8 -148 25 -252 61 -194 190 -390 440 -673 44
-48 90 -103 103 -122 32 -46 39 -120 16 -180 -17 -45 -19 -46 -154 -111 -265
-127 -419 -171 -543 -157 -92 10 -110 33 -153 189 l-17 60 -18 -23 c-10 -12
-24 -48 -30 -79 -20 -93 1 -187 56 -252 l26 -31 133 0 c78 0 166 6 215 16 159
30 341 108 539 231 l93 58 18 70 c10 39 23 83 29 98 6 16 11 52 11 81 0 53 -1
54 -71 122 -149 145 -344 380 -468 564 -110 163 -132 204 -166 305 -31 92 -48
110 -84 86z"/>
<path d="M2315 9411 c-22 -10 -54 -34 -71 -54 -31 -34 -72 -133 -60 -144 3 -3
23 10 45 30 40 36 81 54 99 43 6 -4 2 -30 -9 -67 -34 -110 -20 -299 29 -383
32 -56 38 -42 39 91 1 213 30 293 107 293 44 0 72 -32 124 -143 21 -45 48 -90
60 -101 21 -18 21 -18 28 9 3 14 4 61 2 103 -13 227 -224 400 -393 323z"/>
<path d="M6165 8495 c-191 -101 -291 -142 -405 -165 -79 -16 -85 -19 -92 -46
-4 -16 -5 -68 -2 -116 l7 -88 31 0 c56 0 168 29 233 59 131 62 247 178 347
349 27 46 47 85 44 87 -2 2 -75 -34 -163 -80z"/>
<path d="M4610 8422 c0 -20 61 -101 110 -145 101 -91 302 -168 512 -196 42 -6
140 -14 218 -17 l140 -7 0 89 c0 49 -3 105 -6 125 l-6 37 -262 5 c-333 6 -514
33 -668 101 -21 9 -38 13 -38 8z"/>
<path d="M4500 8197 c-43 -22 -36 -43 37 -115 37 -37 95 -105 128 -150 140
-197 238 -248 495 -259 149 -6 269 6 394 39 87 23 135 57 166 118 l19 38 -237
-6 c-355 -7 -533 17 -691 94 -88 43 -175 126 -211 201 -27 57 -50 66 -100 40z"/>
<path d="M2473 7295 c-58 -29 -167 -139 -208 -210 -15 -25 -25 -48 -23 -50 2
-3 67 32 144 77 89 52 150 81 169 81 17 0 93 -25 170 -55 185 -74 190 -75 176
-50 -22 41 -164 162 -226 193 -89 44 -137 47 -202 14z"/>
<path d="M4514 5740 c-85 -35 -60 -164 31 -164 72 0 111 84 63 138 -26 29 -63
39 -94 26z"/>
<path d="M4515 5045 c-53 -52 -16 -145 57 -145 37 1 59 14 76 47 19 35 14 63
-17 94 -38 37 -82 39 -116 4z"/>
<path d="M4078 2443 c-54 -6 -52 -36 2 -52 22 -6 44 -20 50 -31 6 -12 10 -149
10 -363 0 -370 2 -358 -52 -371 -19 -4 -28 -13 -28 -26 0 -19 7 -20 175 -20
166 0 175 1 175 19 0 13 -11 23 -34 31 -42 13 -46 24 -46 109 0 61 10 91 31
91 7 0 145 -207 155 -234 5 -14 40 -16 320 -16 303 0 314 1 314 19 0 13 -11
23 -36 31 -22 8 -39 21 -45 37 -5 13 -9 125 -9 249 l0 224 -87 0 c-134 0 -193
-9 -193 -30 0 -11 15 -23 40 -33 26 -10 43 -25 50 -42 11 -28 14 -335 4 -372
-9 -34 -72 -50 -121 -32 -32 12 -53 36 -140 164 -56 83 -102 155 -102 162 -1
19 102 92 166 118 41 17 59 30 61 44 3 20 -1 21 -142 21 -135 0 -146 -1 -146
-18 0 -13 12 -22 40 -31 22 -6 40 -17 40 -24 0 -7 -44 -55 -97 -106 l-98 -95
-3 292 -2 292 -108 -2 c-59 -1 -124 -3 -144 -5z"/>
<path d="M4905 2441 c-65 -27 -82 -118 -32 -168 23 -24 36 -28 82 -28 45 0 59
4 80 26 85 85 -16 216 -130 170z"/>
<path d="M2130 2360 c0 -14 11 -22 43 -31 23 -6 48 -16 55 -21 9 -8 12 -80 12
-297 0 -312 -3 -331 -60 -373 -36 -26 -90 -33 -115 -14 -20 14 -19 15 11 48
56 59 66 96 40 147 -17 33 -54 51 -102 51 -28 0 -44 -8 -70 -34 -30 -30 -34
-40 -34 -87 0 -117 90 -189 236 -189 93 0 160 26 221 85 77 75 83 104 83 411
0 282 -5 264 73 278 28 5 37 12 37 26 0 19 -8 20 -215 20 -207 0 -215 -1 -215
-20z"/>
<path d="M2803 2139 c-233 -90 -247 -448 -21 -550 45 -20 69 -24 153 -24 86 0
107 4 150 25 28 13 70 45 94 69 l43 45 -22 18 c-22 17 -23 17 -63 -17 -69 -59
-162 -69 -233 -26 -38 23 -70 88 -78 159 l-7 52 191 0 190 0 0 41 c0 105 -57
186 -151 213 -73 22 -182 20 -246 -5z m142 -25 c25 -10 45 -57 52 -124 l6 -60
-92 0 -91 0 6 43 c10 70 24 106 51 127 27 21 41 24 68 14z"/>
<path d="M3661 2147 c-18 -7 -50 -27 -71 -45 -21 -18 -41 -32 -44 -32 -3 0 -6
16 -6 35 l0 35 -87 0 c-136 0 -193 -9 -193 -31 0 -11 10 -20 30 -24 56 -12 60
-29 60 -247 l0 -197 -40 -12 c-28 -9 -40 -18 -40 -31 0 -17 12 -18 175 -18
168 0 175 1 175 20 0 13 -9 22 -25 26 -49 12 -55 35 -55 210 l0 162 35 30 c62
55 145 50 160 -11 3 -12 4 -103 3 -202 l-3 -179 -32 -10 c-22 -6 -33 -15 -33
-27 0 -18 11 -19 175 -19 166 0 175 1 175 19 0 13 -9 21 -29 26 -53 11 -56 22
-61 236 -5 216 -8 224 -73 273 -34 25 -145 32 -196 13z"/>
<path d="M5591 2147 c-18 -7 -50 -27 -71 -45 -21 -18 -41 -32 -44 -32 -3 0 -6
16 -6 35 l0 35 -87 0 c-136 0 -193 -9 -193 -31 0 -11 10 -20 30 -24 56 -12 60
-29 60 -247 l0 -197 -40 -12 c-28 -9 -40 -18 -40 -31 0 -17 12 -18 175 -18
168 0 175 1 175 20 0 13 -9 22 -25 26 -49 12 -55 35 -55 210 l0 162 35 30 c62
55 145 50 160 -11 3 -12 4 -103 3 -202 l-3 -179 -32 -10 c-22 -6 -33 -15 -33
-27 0 -18 11 -19 175 -19 166 0 175 1 175 19 0 13 -9 21 -29 26 -53 11 -56 22
-61 236 -5 216 -8 224 -73 273 -34 25 -145 32 -196 13z"/>
<path d="M6160 2151 c-114 -35 -172 -129 -140 -226 21 -64 68 -100 180 -137
56 -18 110 -41 121 -51 25 -23 25 -78 0 -108 -16 -20 -28 -24 -74 -24 -72 0
-128 38 -176 118 -22 37 -40 57 -52 57 -17 0 -19 -9 -19 -105 0 -105 0 -105
25 -105 13 0 28 7 33 16 8 14 15 13 70 -5 110 -37 254 -21 322 35 42 36 61 77
62 134 0 100 -50 150 -196 195 -93 29 -115 41 -126 70 -19 51 23 105 82 105
43 0 106 -40 137 -87 17 -26 31 -50 31 -55 0 -4 12 -8 26 -8 22 0 25 3 20 23
-3 12 -6 55 -6 95 0 67 -2 72 -21 72 -12 0 -27 -7 -33 -15 -10 -13 -17 -13
-60 0 -51 16 -163 19 -206 6z"/>
<path d="M3483 1303 c-35 -3 -43 -8 -43 -23 0 -15 9 -21 42 -26 23 -4 52 -17
65 -30 21 -21 23 -32 23 -128 l0 -104 -47 15 c-31 9 -73 13 -119 10 -109 -6
-180 -55 -237 -161 -18 -34 -22 -57 -22 -136 0 -84 3 -102 28 -152 48 -97 127
-148 228 -148 45 0 120 29 151 57 17 15 18 14 18 -10 l0 -27 93 0 c141 0 197
9 197 31 0 13 -10 20 -35 25 -68 12 -65 -5 -65 425 l0 389 -117 -2 c-65 -1
-137 -3 -160 -5z m49 -362 l33 -29 3 -178 c3 -176 3 -178 -20 -196 -62 -48
-143 -26 -179 49 -17 36 -22 63 -22 137 0 51 6 110 13 132 35 108 107 143 172
85z"/>
<path d="M5935 1245 c-27 -8 -53 -14 -56 -15 -4 0 -34 -18 -68 -41 -115 -76
-181 -206 -181 -354 0 -234 160 -399 401 -413 152 -8 248 26 345 123 44 43 67
76 82 117 117 314 -73 600 -396 597 -43 0 -99 -7 -127 -14z m182 -46 c56 -21
109 -90 127 -164 30 -124 23 -328 -14 -428 -63 -168 -246 -183 -325 -28 -31
62 -45 143 -45 261 0 118 14 199 46 261 44 89 131 129 211 98z"/>
<path d="M7643 1240 c-42 -25 -53 -67 -38 -145 80 -399 79 -395 102 -395 18 0
23 7 29 38 3 20 19 100 36 177 55 267 53 249 32 286 -35 60 -101 76 -161 39z"/>
<path d="M830 1221 c0 -13 14 -24 45 -35 24 -10 56 -31 70 -47 l25 -31 0 -271
c0 -198 -4 -279 -13 -297 -13 -26 -45 -46 -89 -55 -19 -4 -28 -12 -28 -25 0
-19 7 -20 171 -20 169 0 170 0 167 22 -2 16 -15 25 -50 35 -77 22 -81 36 -86
311 -2 127 0 232 4 231 5 0 117 -135 249 -300 l240 -299 53 0 52 0 0 323 c0
193 4 337 11 360 11 42 37 62 92 71 28 5 37 12 37 26 0 19 -8 20 -175 20 -167
0 -175 -1 -175 -20 0 -14 11 -22 41 -30 56 -15 86 -48 94 -101 3 -24 5 -119 3
-210 l-3 -165 -213 263 -213 263 -154 0 c-145 0 -155 -1 -155 -19z"/>
<path d="M4710 1221 c0 -14 12 -22 44 -30 61 -15 101 -64 219 -270 l97 -170 0
-114 c0 -98 -3 -116 -18 -130 -10 -10 -27 -17 -38 -17 -39 0 -64 -13 -64 -31
0 -18 11 -19 225 -19 212 0 225 1 225 19 0 13 -13 22 -52 32 -63 17 -78 40
-78 119 0 132 12 168 105 316 127 203 156 239 210 259 31 12 45 23 45 36 0 18
-10 19 -150 19 -141 0 -150 -1 -150 -19 0 -15 10 -21 39 -26 22 -4 45 -13 52
-21 16 -19 2 -49 -98 -213 l-76 -123 -30 48 c-60 97 -149 275 -144 289 3 7 26
17 51 20 36 6 46 11 46 26 0 18 -11 19 -230 19 -218 0 -230 -1 -230 -19z"/>
<path d="M6560 1220 c0 -14 11 -22 40 -30 69 -18 70 -24 70 -295 0 -134 5
-256 10 -277 18 -64 69 -120 144 -158 68 -34 71 -35 190 -35 102 0 128 3 167
21 63 29 114 77 141 132 22 44 23 61 28 297 6 298 6 296 113 319 18 4 27 13
27 26 0 19 -7 20 -176 20 -174 0 -175 0 -172 -22 2 -16 15 -25 50 -35 81 -23
83 -30 83 -303 0 -225 -1 -237 -23 -277 -12 -24 -41 -55 -63 -70 -35 -23 -52
-27 -113 -28 -91 0 -141 24 -176 86 -25 43 -25 49 -28 296 -3 172 0 258 7 272
7 13 29 25 56 32 33 8 45 16 45 30 0 18 -11 19 -210 19 -202 0 -210 -1 -210
-20z"/>
<path d="M2013 999 c-233 -90 -247 -448 -21 -550 45 -20 69 -24 153 -24 86 0
107 4 150 25 28 13 70 45 94 69 l43 45 -22 18 c-22 17 -23 17 -63 -17 -69 -59
-162 -69 -233 -26 -38 23 -70 88 -78 159 l-7 52 191 0 190 0 0 41 c0 105 -57
186 -151 213 -73 22 -182 20 -246 -5z m142 -25 c25 -10 45 -57 52 -124 l6 -60
-92 0 -91 0 6 43 c10 70 24 106 51 127 27 21 41 24 68 14z"/>
<path d="M2663 999 c-233 -90 -247 -448 -21 -550 45 -20 69 -24 153 -24 86 0
107 4 150 25 28 13 70 45 94 69 l43 45 -22 18 c-22 17 -23 17 -63 -17 -69 -59
-162 -69 -233 -26 -38 23 -70 88 -78 159 l-7 52 191 0 190 0 0 41 c0 105 -57
186 -151 213 -73 22 -182 20 -246 -5z m142 -25 c25 -10 45 -57 52 -124 l6 -60
-92 0 -91 0 6 43 c10 70 24 106 51 127 27 21 41 24 68 14z"/>
<path d="M4060 1011 c-114 -35 -172 -129 -140 -226 21 -64 68 -100 180 -137
56 -18 110 -41 121 -51 25 -23 25 -78 0 -108 -16 -20 -28 -24 -74 -24 -72 0
-128 38 -176 118 -22 37 -40 57 -52 57 -17 0 -19 -9 -19 -105 0 -105 0 -105
25 -105 13 0 28 7 33 16 8 14 15 13 70 -5 110 -37 254 -21 322 35 42 36 61 77
62 134 0 100 -50 150 -196 195 -93 29 -115 41 -126 70 -19 51 23 105 82 105
43 0 106 -40 137 -87 17 -26 31 -50 31 -55 0 -4 12 -8 26 -8 22 0 25 3 20 23
-3 12 -6 55 -6 95 0 67 -2 72 -21 72 -12 0 -27 -7 -33 -15 -10 -13 -17 -13
-60 0 -51 16 -163 19 -206 6z"/>
<path d="M7655 619 c-36 -21 -55 -53 -55 -95 0 -70 58 -114 134 -100 81 15
109 124 46 181 -24 21 -98 30 -125 14z"/>
</g>
</svg>
